<?xml version="1.0" encoding="UTF-8" standalone="no"?>
<!-- Created with Inkscape (http://www.inkscape.org/) -->

<svg
   version="1.1"
   id="svg2"
   width="1821.3333"
   height="393.33334"
   viewBox="0 0 1821.3333 393.33334"
   sodipodi:docname="adspect-new_outlines.ai"
   xmlns:inkscape="http://www.inkscape.org/namespaces/inkscape"
   xmlns:sodipodi="http://sodipodi.sourceforge.net/DTD/sodipodi-0.dtd"
   xmlns="http://www.w3.org/2000/svg"
   xmlns:svg="http://www.w3.org/2000/svg">
  <defs
     id="defs6">
    <clipPath
       clipPathUnits="userSpaceOnUse"
       id="clipPath16">
      <path
         d="M 0,295 H 1366 V 0 H 0 Z"
         id="path14" />
    </clipPath>
  </defs>
  <sodipodi:namedview
     id="namedview4"
     pagecolor="#ffffff"
     bordercolor="#000000"
     borderopacity="0.25"
     inkscape:showpageshadow="2"
     inkscape:pageopacity="0.0"
     inkscape:pagecheckerboard="0"
     inkscape:deskcolor="#d1d1d1" />
  <g
     id="g8"
     inkscape:groupmode="layer"
     inkscape:label="adspect-new_outlines"
     transform="matrix(1.3333333,0,0,-1.3333333,0,393.33333)">
    <g
       id="g10">
      <g
         id="g12"
         clip-path="url(#clipPath16)">
        <g
           id="g18"
           transform="translate(421.6014,126.5478)">
          <path
             d="m 0,0 v 42.49 c -3.967,5.437 -8.996,9.728 -15.088,12.875 -6.091,3.148 -12.679,4.721 -19.762,4.721 -10.674,0 -19.387,-3.84 -26.138,-11.516 -6.754,-7.678 -10.13,-16.809 -10.13,-27.397 0,-11.159 3.518,-20.411 10.555,-27.754 7.034,-7.346 15.889,-11.016 26.563,-11.016 6.988,0 13.48,1.596 19.479,4.793 C -8.524,-9.61 -3.683,-5.343 0,0 M 37.684,92.276 V -49.787 H 1.417 v 11.445 c -11.05,-9.538 -24.133,-14.306 -39.242,-14.306 -10.296,0 -20.117,2.145 -29.468,6.438 -9.35,4.292 -17.19,10.108 -23.517,17.454 -11.995,14.02 -17.991,30.663 -17.991,49.929 0,20.889 6.705,38.46 20.116,52.72 13.41,14.257 29.703,21.388 48.876,21.388 15.677,0 29.418,-4.818 41.226,-14.45 v 11.445 z"
             style="fill:#ffffff;fill-opacity:1;fill-rule:nonzero;stroke:none"
             id="path20" />
        </g>
        <g
           id="g22"
           transform="translate(586.0355,126.5478)">
          <path
             d="m 0,0 v 42.49 c -3.967,5.437 -8.996,9.728 -15.088,12.875 -6.091,3.148 -12.679,4.721 -19.762,4.721 -10.674,0 -19.387,-3.84 -26.138,-11.516 -6.754,-7.678 -10.13,-16.809 -10.13,-27.397 0,-11.159 3.518,-20.411 10.555,-27.754 7.034,-7.346 15.889,-11.016 26.563,-11.016 6.988,0 13.48,1.596 19.479,4.793 C -8.524,-9.61 -3.683,-5.343 0,0 M 37.684,-49.787 H 1.417 v 11.445 c -11.05,-9.538 -24.133,-14.306 -39.242,-14.306 -10.296,0 -20.118,2.145 -29.468,6.438 -9.35,4.292 -17.19,10.108 -23.517,17.454 -11.995,14.02 -17.991,30.663 -17.991,49.929 0,20.889 6.705,38.46 20.116,52.72 13.41,14.257 29.703,21.388 48.876,21.388 15.393,0 28.664,-4.388 39.809,-13.163 v 76.111 h 37.684 z"
             style="fill:#ffffff;fill-opacity:1;fill-rule:nonzero;stroke:none"
             id="path24" />
        </g>
        <g
           id="g26"
           transform="translate(645.0623,92.9273)">
          <path
             d="m 0,0 18.276,27.183 c 4.816,-4.389 10.695,-7.822 17.637,-10.301 6.942,-2.482 13.955,-3.72 21.039,-3.72 5.099,0 9.371,1.12 12.82,3.362 3.447,2.24 5.171,5.126 5.171,8.655 0,2.576 -0.97,4.865 -2.903,6.867 -1.938,2.004 -4.512,3.671 -7.721,5.008 -3.213,1.334 -6.871,2.789 -10.98,4.364 -4.109,1.573 -8.288,3.05 -12.538,4.435 -4.251,1.381 -8.429,3.241 -12.538,5.579 -4.108,2.336 -7.769,4.912 -10.979,7.725 -3.212,2.813 -5.787,6.414 -7.721,10.802 -1.937,4.386 -2.905,9.299 -2.905,14.735 0,13.066 5.36,23.699 16.08,31.903 10.718,8.202 23.351,12.304 37.897,12.304 8.783,0 17.684,-1.43 26.705,-4.292 9.017,-2.861 15.984,-6.248 20.896,-10.157 L 90.528,86.983 c -8.691,6.389 -17.664,9.585 -26.918,9.585 -5.478,0 -10.037,-1.001 -13.671,-3.004 -3.637,-2.003 -5.454,-4.77 -5.454,-8.298 0,-2.481 1.25,-4.649 3.754,-6.508 2.501,-1.86 5.76,-3.505 9.775,-4.937 4.014,-1.43 8.451,-2.933 13.317,-4.506 4.863,-1.574 9.704,-3.529 14.521,-5.865 4.817,-2.339 9.231,-5.079 13.246,-8.227 4.014,-3.147 7.271,-7.321 9.775,-12.518 2.501,-5.2 3.754,-11.136 3.754,-17.812 0,-8.776 -2.621,-16.549 -7.862,-23.319 -5.242,-6.773 -12.067,-11.899 -20.472,-15.38 -8.407,-3.481 -17.616,-5.221 -27.625,-5.221 -9.824,0 -19.67,1.645 -29.538,4.935 C 17.259,-10.802 8.217,-6.105 0,0"
             style="fill:#ffffff;fill-opacity:1;fill-rule:nonzero;stroke:none"
             id="path28" />
        </g>
        <g
           id="g30"
           transform="translate(822.1007,169.0374)">
          <path
             d="m 0,0 v -42.49 c 3.683,-5.436 8.5,-9.728 14.451,-12.876 5.949,-3.147 12.417,-4.72 19.408,-4.72 10.671,0 19.549,3.669 26.633,11.015 7.084,7.343 10.626,16.596 10.626,27.755 0,10.587 -3.378,19.718 -10.13,27.396 -6.754,7.677 -15.467,11.517 -26.138,11.517 -7.083,0 -13.671,-1.574 -19.762,-4.721 C 8.996,9.728 3.967,5.437 0,0 M -37.684,-162.665 V 49.787 H -1.417 V 38.342 c 11.805,9.632 25.501,14.449 41.084,14.449 12.559,0 24.13,-3.244 34.709,-9.728 10.576,-6.487 18.959,-15.405 25.146,-26.753 6.185,-11.351 9.279,-23.891 9.279,-37.626 0,-19.553 -5.903,-36.196 -17.709,-49.93 -6.328,-7.345 -14.237,-13.161 -23.729,-17.454 -9.491,-4.292 -19.386,-6.437 -29.679,-6.437 -13.979,0 -26.542,4.291 -37.684,12.875 v -80.403 z"
             style="fill:#ffffff;fill-opacity:1;fill-rule:nonzero;stroke:none"
             id="path32" />
        </g>
        <g
           id="g34"
           transform="translate(984.1206,166.1766)">
          <path
             d="M 0,0 H 58.084 C 57.518,6.581 54.588,12.375 49.3,17.382 44.01,22.389 37.635,24.893 30.175,24.893 22.525,24.893 15.796,22.412 9.987,17.454 4.179,12.493 0.849,6.675 0,0 m 71.684,-45.209 21.393,-21.603 c -6.708,-8.107 -15.208,-14.377 -25.501,-18.812 -10.295,-4.435 -21.016,-6.652 -32.159,-6.652 -21.345,0 -38.959,6.817 -52.842,20.457 -13.884,13.638 -20.826,31.425 -20.826,53.364 0,9.822 1.629,19.217 4.888,28.183 3.259,8.964 7.791,16.857 13.6,23.677 5.808,6.818 13.033,12.232 21.675,16.238 8.643,4.006 18.064,6.009 28.263,6.009 12.655,0 24.084,-3.315 34.284,-9.943 10.2,-6.63 18.109,-15.476 23.729,-26.538 5.619,-11.066 8.43,-23.13 8.43,-36.196 0,-4.006 -0.284,-7.631 -0.85,-10.873 H -1.7 c 0.943,-9.921 5.005,-18.003 12.183,-24.25 7.177,-6.247 15.772,-9.37 25.784,-9.37 7.271,0 14.001,1.62 20.188,4.864 6.184,3.242 11.262,7.057 15.229,11.445"
             style="fill:#ffffff;fill-opacity:1;fill-rule:nonzero;stroke:none"
             id="path36" />
        </g>
        <g
           id="g38"
           transform="translate(1210.5665,127.6917)">
          <path
             d="m 0,0 29.043,-21.888 c -15.775,-21.27 -37.072,-31.904 -63.893,-31.904 -21.534,0 -39.479,7.129 -53.834,21.388 -14.357,14.258 -21.534,31.737 -21.534,52.434 0,13.638 3.281,26.109 9.847,37.411 6.563,11.302 15.653,20.243 27.27,26.824 11.617,6.581 24.46,9.872 38.534,9.872 11.9,0 23.068,-2.575 33.505,-7.726 C 9.373,81.261 17.944,74.345 24.651,65.667 L -1.983,41.919 c -3.874,5.243 -8.62,9.392 -14.237,12.446 -5.621,3.051 -11.737,4.578 -18.347,4.578 -10.862,0 -19.904,-3.745 -27.13,-11.231 -7.224,-7.488 -10.836,-16.715 -10.836,-27.682 0,-11.255 3.612,-20.53 10.836,-27.826 7.226,-7.297 16.552,-10.945 27.98,-10.945 7.177,0 13.743,1.811 19.692,5.437 C -8.075,-9.68 -3.399,-5.246 0,0"
             style="fill:#ffffff;fill-opacity:1;fill-rule:nonzero;stroke:none"
             id="path40" />
        </g>
        <g
           id="g42"
           transform="translate(1358.9529,108.951)">
          <path
             d="m 0,0 5.808,-32.19 c -5.478,-1.907 -13.316,-2.861 -23.516,-2.861 -22.292,0 -38.534,6.817 -48.734,20.458 -6.99,9.442 -10.484,23.606 -10.484,42.491 v 49.785 h -39.101 v 32.19 h 39.101 v 39.629 h 37.825 V 109.873 H 7.225 V 77.683 H -39.101 V 23.462 c 0,-8.298 1.511,-14.259 4.534,-17.883 4.059,-4.674 10.483,-7.011 19.267,-7.011 5.95,0 11.05,0.477 15.3,1.432"
             style="fill:#ffffff;fill-opacity:1;fill-rule:nonzero;stroke:none"
             id="path44" />
        </g>
        <g
           id="g46"
           transform="translate(53.7806,105.1853)">
          <path
             d="m 0,0 v 84.424 l 73.033,42.212 73.034,-42.212 V 0 L 73.033,-42.212 Z M 73.033,188.279 46.232,172.868 -26.801,130.656 -53.603,115.245 V -30.821 l 26.802,-15.411 73.703,-42.212 26.802,-15.411 26.801,15.411 72.363,42.212 26.801,15.411 v 146.066 l -26.801,15.411 -73.033,42.212 z"
             style="fill:#ffffff;fill-opacity:1;fill-rule:nonzero;stroke:none"
             id="path48" />
        </g>
      </g>
    </g>
  </g>
</svg>
